<svg width="20" height="20" viewBox="0 0 20 20" fill="none" xmlns="http://www.w3.org/2000/svg">
<path d="M10.0003 11.0769C10.2129 11.0769 10.391 11.005 10.5346 10.8613C10.6782 10.7175 10.75 10.5394 10.75 10.3269V5.80188C10.75 5.59548 10.6781 5.42305 10.5343 5.2846C10.3904 5.14613 10.2122 5.0769 9.99965 5.0769C9.78705 5.0769 9.60896 5.14878 9.46538 5.29253C9.32179 5.43628 9.25 5.61439 9.25 5.82688V10.3519C9.25 10.5583 9.3219 10.7308 9.4657 10.8692C9.60952 11.0077 9.78772 11.0769 10.0003 11.0769ZM9.99998 14.7307C10.2288 14.7307 10.4207 14.6533 10.5755 14.4985C10.7303 14.3437 10.8077 14.1519 10.8077 13.9231C10.8077 13.6942 10.7303 13.5024 10.5755 13.3476C10.4207 13.1928 10.2288 13.1154 9.99998 13.1154C9.77112 13.1154 9.5793 13.1928 9.4245 13.3476C9.2697 13.5024 9.1923 13.6942 9.1923 13.9231C9.1923 14.1519 9.2697 14.3437 9.4245 14.4985C9.5793 14.6533 9.77112 14.7307 9.99998 14.7307ZM9.99998 19.5C8.68074 19.5 7.44325 19.2519 6.2875 18.7557C5.13173 18.2596 4.12628 17.5839 3.27115 16.7288C2.41603 15.8737 1.7404 14.8682 1.24425 13.7125C0.748083 12.5567 0.5 11.3192 0.5 9.99998C0.5 8.68074 0.748083 7.44325 1.24425 6.2875C1.7404 5.13173 2.41603 4.12628 3.27115 3.27115C4.12628 2.41603 5.13173 1.7404 6.2875 1.24425C7.44325 0.748083 8.68074 0.5 9.99998 0.5C11.3192 0.5 12.5567 0.748083 13.7125 1.24425C14.8682 1.7404 15.8737 2.41603 16.7288 3.27115C17.5839 4.12628 18.2596 5.13173 18.7557 6.2875C19.2519 7.44325 19.5 8.68074 19.5 9.99998C19.5 11.3192 19.2519 12.5567 18.7557 13.7125C18.2596 14.8682 17.5839 15.8737 16.7288 16.7288C15.8737 17.5839 14.8682 18.2596 13.7125 18.7557C12.5567 19.2519 11.3192 19.5 9.99998 19.5ZM9.99998 18C12.2166 18 14.1041 17.2208 15.6625 15.6625C17.2208 14.1041 18 12.2166 18 9.99998C18 7.78331 17.2208 5.89581 15.6625 4.33748C14.1041 2.77914 12.2166 1.99997 9.99998 1.99997C7.78331 1.99997 5.89581 2.77914 4.33748 4.33748C2.77914 5.89581 1.99998 7.78331 1.99998 9.99998C1.99998 12.2166 2.77914 14.1041 4.33748 15.6625C5.89581 17.2208 7.78331 18 9.99998 18Z" fill="#DA1E28"/>
</svg>
