<svg width="32" height="32" viewBox="0 0 32 32" fill="none" xmlns="http://www.w3.org/2000/svg">
<rect width="32" height="32" rx="8" fill="#7957FF"/>
<path d="M12.6232 6H9.72464C9.32443 6 9 6.32443 9 6.72464V9.62319C9 10.0234 9.32443 10.3478 9.72464 10.3478H12.6232C13.0234 10.3478 13.3478 10.0234 13.3478 9.62319V6.72464C13.3478 6.32443 13.0234 6 12.6232 6Z" fill="white"/>
<path d="M12.6232 11.2174H9.72464C9.32443 11.2174 9 11.5418 9 11.942V14.8406C9 15.2408 9.32443 15.5652 9.72464 15.5652H12.6232C13.0234 15.5652 13.3478 15.2408 13.3478 14.8406V11.942C13.3478 11.5418 13.0234 11.2174 12.6232 11.2174Z" fill="white"/>
<path d="M12.6232 16.4348H9.72464C9.32443 16.4348 9 16.7592 9 17.1594V20.058C9 20.4582 9.32443 20.7826 9.72464 20.7826H12.6232C13.0234 20.7826 13.3478 20.4582 13.3478 20.058V17.1594C13.3478 16.7592 13.0234 16.4348 12.6232 16.4348Z" fill="white"/>
<path d="M12.6232 21.6522H9.72464C9.32443 21.6522 9 21.9766 9 22.3768V25.2754C9 25.6756 9.32443 26 9.72464 26H12.6232C13.0234 26 13.3478 25.6756 13.3478 25.2754V22.3768C13.3478 21.9766 13.0234 21.6522 12.6232 21.6522Z" fill="white"/>
<path d="M17.8406 6H14.942C14.5418 6 14.2174 6.32443 14.2174 6.72464V9.62319C14.2174 10.0234 14.5418 10.3478 14.942 10.3478H17.8406C18.2408 10.3478 18.5652 10.0234 18.5652 9.62319V6.72464C18.5652 6.32443 18.2408 6 17.8406 6Z" fill="white"/>
<path d="M17.8406 11.2174H14.942C14.5418 11.2174 14.2174 11.5418 14.2174 11.942V14.8406C14.2174 15.2408 14.5418 15.5652 14.942 15.5652H17.8406C18.2408 15.5652 18.5652 15.2408 18.5652 14.8406V11.942C18.5652 11.5418 18.2408 11.2174 17.8406 11.2174Z" fill="white"/>
<path d="M17.8406 16.4348H14.942C14.5418 16.4348 14.2174 16.7592 14.2174 17.1594V20.058C14.2174 20.4582 14.5418 20.7826 14.942 20.7826H17.8406C18.2408 20.7826 18.5652 20.4582 18.5652 20.058V17.1594C18.5652 16.7592 18.2408 16.4348 17.8406 16.4348Z" fill="white"/>
<path d="M17.8406 21.6522H14.942C14.5418 21.6522 14.2174 21.9766 14.2174 22.3768V25.2754C14.2174 25.6756 14.5418 26 14.942 26H17.8406C18.2408 26 18.5652 25.6756 18.5652 25.2754V22.3768C18.5652 21.9766 18.2408 21.6522 17.8406 21.6522Z" fill="white"/>
<path d="M23.058 6H20.1595C19.7592 6 19.4348 6.32443 19.4348 6.72464V9.62319C19.4348 10.0234 19.7592 10.3478 20.1595 10.3478H23.058C23.4582 10.3478 23.7826 10.0234 23.7826 9.62319V6.72464C23.7826 6.32443 23.4582 6 23.058 6Z" fill="white"/>
<path d="M23.058 11.2174H20.1595C19.7592 11.2174 19.4348 11.5418 19.4348 11.942V14.8406C19.4348 15.2408 19.7592 15.5652 20.1595 15.5652H23.058C23.4582 15.5652 23.7826 15.2408 23.7826 14.8406V11.942C23.7826 11.5418 23.4582 11.2174 23.058 11.2174Z" fill="white"/>
<path d="M23.058 16.4348H20.1595C19.7592 16.4348 19.4348 16.7592 19.4348 17.1594V20.058C19.4348 20.4582 19.7592 20.7826 20.1595 20.7826H23.058C23.4582 20.7826 23.7826 20.4582 23.7826 20.058V17.1594C23.7826 16.7592 23.4582 16.4348 23.058 16.4348Z" fill="white"/>
<path d="M23.058 21.6522H20.1595C19.7592 21.6522 19.4348 21.9766 19.4348 22.3768V25.2754C19.4348 25.6756 19.7592 26 20.1595 26H23.058C23.4582 26 23.7826 25.6756 23.7826 25.2754V22.3768C23.7826 21.9766 23.4582 21.6522 23.058 21.6522Z" fill="white"/>
<path d="M13.7826 11.2174C14.0227 11.2174 14.2173 11.0227 14.2173 10.7826C14.2173 10.5425 14.0227 10.3478 13.7826 10.3478C13.5424 10.3478 13.3478 10.5425 13.3478 10.7826C13.3478 11.0227 13.5424 11.2174 13.7826 11.2174Z" fill="white"/>
<path d="M13.7826 16.4348C14.0227 16.4348 14.2173 16.2401 14.2173 16C14.2173 15.7599 14.0227 15.5652 13.7826 15.5652C13.5424 15.5652 13.3478 15.7599 13.3478 16C13.3478 16.2401 13.5424 16.4348 13.7826 16.4348Z" fill="white"/>
<path d="M13.7826 21.6522C14.0227 21.6522 14.2173 21.4575 14.2173 21.2174C14.2173 20.9773 14.0227 20.7826 13.7826 20.7826C13.5424 20.7826 13.3478 20.9773 13.3478 21.2174C13.3478 21.4575 13.5424 21.6522 13.7826 21.6522Z" fill="white"/>
<path d="M19 11.2174C19.2401 11.2174 19.4347 11.0227 19.4347 10.7826C19.4347 10.5425 19.2401 10.3478 19 10.3478C18.7598 10.3478 18.5652 10.5425 18.5652 10.7826C18.5652 11.0227 18.7598 11.2174 19 11.2174Z" fill="white"/>
<path d="M19 16.4348C19.2401 16.4348 19.4347 16.2401 19.4347 16C19.4347 15.7599 19.2401 15.5652 19 15.5652C18.7598 15.5652 18.5652 15.7599 18.5652 16C18.5652 16.2401 18.7598 16.4348 19 16.4348Z" fill="white"/>
<path d="M19 21.6522C19.2401 21.6522 19.4347 21.4575 19.4347 21.2174C19.4347 20.9773 19.2401 20.7826 19 20.7826C18.7598 20.7826 18.5652 20.9773 18.5652 21.2174C18.5652 21.4575 18.7598 21.6522 19 21.6522Z" fill="white"/>
<path d="M10.8112 24.8406L10.9667 24.0577L10.3319 24.6335L10.0145 24.0771L10.9473 23.7536L10.0145 23.4301L10.3319 22.8738L10.9667 23.4496L10.8112 22.6667H11.5367L11.3812 23.4496L12.016 22.8738L12.3334 23.4301L11.4006 23.7536L12.3334 24.0771L12.016 24.6335L11.3747 24.0513L11.5367 24.8406H10.8112Z" fill="#7957FF"/>
<path d="M20.7447 24.9855L20.867 24.3946H20.4492V24.1713H20.9111L21.0369 23.5667H20.653V23.3435H21.0844L21.2237 22.6667H21.5599L21.4207 23.3435H21.8521L21.9914 22.6667H22.3276L22.1883 23.3435H22.6231V23.5667H22.1408L22.0185 24.1713H22.4194V24.3946H21.971L21.8486 24.9855H21.5124L21.6347 24.3946H21.2033L21.081 24.9855H20.7447ZM21.2508 24.1713H21.6788L21.8046 23.5667H21.3731L21.2508 24.1713Z" fill="#7957FF"/>
</svg>
